<?xml version="1.0" encoding="UTF-8"?><svg xmlns="http://www.w3.org/2000/svg" viewBox="0 0 642.707 732.33"><g id="Layer_4"><polygon points="321.354 707.33 25.02 543.667 25 188.656 321.354 321.333 321.354 707.33" fill="#a3bfd9" opacity=".6"/><polygon points="617.688 543.667 321.354 707.33 321.354 321.333 617.684 196.165 617.688 543.667" fill="#a3bfd9" opacity=".6"/><polygon points="617.684 196.165 321.354 321.333 25 188.656 321.354 25 617.684 196.165" fill="#a3bfd9" opacity=".6"/></g><g id="Layer_1"><path d="M395.354,284.333l-74,37M321.354,321.333l-74.001-37M321.354,321.333v92.667M395.354,62l-74-37-74.001,37M99.02,580.667l-74-37v-92.667M543.688,580.667l74-37v-92.667" fill="none" stroke="#292d32" stroke-linecap="round" stroke-linejoin="round" stroke-width="50"/><g opacity=".4"><path d="M617.684,188.656l-74,37" fill="none" stroke="#292d32" stroke-linecap="round" stroke-linejoin="round" stroke-width="50"/><path d="M617.684,188.66l-74-37" fill="none" stroke="#292d32" stroke-linecap="round" stroke-linejoin="round" stroke-width="50"/><path d="M617.707,188.656v92.667" fill="none" stroke="#292d32" stroke-linecap="round" stroke-linejoin="round" stroke-width="50"/><path d="M25,188.66l74-37" fill="none" stroke="#292d32" stroke-linecap="round" stroke-linejoin="round" stroke-width="50"/><path d="M25,188.656l74,37" fill="none" stroke="#292d32" stroke-linecap="round" stroke-linejoin="round" stroke-width="50"/><path d="M25,188.656v92.667" fill="none" stroke="#292d32" stroke-linecap="round" stroke-linejoin="round" stroke-width="50"/><path d="M321.331,707.33l-74-37" fill="none" stroke="#292d32" stroke-linecap="round" stroke-linejoin="round" stroke-width="50"/><path d="M321.354,707.33l74-37" fill="none" stroke="#292d32" stroke-linecap="round" stroke-linejoin="round" stroke-width="50"/><path d="M321.354,707.33v-92.667" fill="none" stroke="#292d32" stroke-linecap="round" stroke-linejoin="round" stroke-width="50"/></g></g></svg>